<?xml version="1.0" encoding="UTF-8"?>
<svg xmlns="http://www.w3.org/2000/svg" version="1.1" viewBox="0 0 1080 1080">
  <defs>
    <style>
      .cls-1 {
        fill: #f4d7a4;
      }

      .cls-2 {
        fill: #fe7e57;
      }

      .cls-3 {
        fill: #404749;
      }

      .cls-4 {
        fill: #9b60aa;
      }
    </style>
  </defs>
  <!-- Generator: Adobe Illustrator 28.6.0, SVG Export Plug-In . SVG Version: 1.2.0 Build 709)  -->
  <g>
    <g id="Layer_1">
      <g>
        <path class="cls-1" d="M629.2,115.4l215.4,372.9,215.4,372.9c28.5,49,11.7,112.3-37.3,140.4-16.3,9.2-33.9,13.8-51.5,13.8H109.7c-57,0-103.1-46.1-103.1-103.1,22-48.6,17.6-57.8,17.6-57.8l211.6-367L451.1,115.4c28.5-49,91.3-65.8,140.4-37.3,15.9,9.2,28.9,22.2,37.3,37.3h.4Z"/>
        <path class="cls-2" d="M954.3,678.9l103.5,179.3-106.4-50.7h-181.8l120.3,207.8H109.2c-57,0-103.1-46.1-103.1-103.1,23.8-40.4,7.1-40.5,11.1-44.5,4-4,6.5-13.3,6.5-13.3h0l211.6-367,85.9-149.2c28.5-49,91.3-65.8,140.4-37.3,15.9,9.2,28.9,22.2,37.3,37.3l121.1,209.9c23.9,43.6,44.8,50.3,82.5,50.3h124c77.5,0,90.5,15.9,127.4,79.6h0l.4.8Z"/>
        <path class="cls-3" d="M471.7,1015.8H109.2c-57,0-103.1-46.1-103.1-103.1s3.8-31,10.1-44.8l7.5-13h0l63.7-110.6c28.5-48.6,91.3-65.4,140.4-36.9,15.9,9.2,28.5,22.2,37.3,37.3l126.1,218.3,80,52.4.4.4Z"/>
        <path class="cls-4" d="M643.9,1015.4h-162.1c-30.2,0-65.4-8.4-90.1-51.5l-126.5-219.1c-8.8-15.1-21.4-28.1-37.3-37.3-49-28.5-111.9-11.7-140.4,36.9l-63.7,110.6,174.7-302.9c28.5-48.6,91.3-65.4,140.4-36.9,15.9,9.2,28.9,22.2,37.3,37.3l116.9,202.4c27.2,40.6,51.1,52.8,99.3,52.8h359.1c59.5,0,87.6,18,108.1,53.6,28.5,49,11.7,112.3-37.3,140.4-16.3,9.2-33.9,13.8-51.5,13.8h-326.8ZM16.6,867.9h0l7.5-13-7.5,13Z"/>
      </g>
    </g>
  </g>
</svg>